<svg xmlns="http://www.w3.org/2000/svg" width="32" height="32" viewBox="0 0 32 32">
  <defs>
    <linearGradient id="g" x1="0%" y1="0%" x2="100%" y2="100%">
      <stop offset="0%" stop-color="#1f2937"/>
      <stop offset="100%" stop-color="#111827"/>
    </linearGradient>
  </defs>
  <rect width="32" height="32" rx="8" fill="url(#g)"/>
  <g transform="translate(4,4)" fill="none" stroke="white" stroke-width="2" stroke-linecap="round" stroke-linejoin="round">
    <path d="M9.937 15.5A2 2 0 0 0 8.5 14.063l-6.135-1.582a.5.5 0 0 1 0-.962L8.5 9.936A2 2 0 0 0 9.937 8.5l1.582-6.135a.5.5 0 0 1 .963 0L14.063 8.5A2 2 0 0 0 15.5 9.937l6.135 1.582a.5.5 0 0 1 0 .963L15.5 14.063a2 2 0 0 0-1.437 1.437l-1.582 6.135a.5.5 0 0 1-.963 0z"/>
    <line x1="20" y1="3" x2="20" y2="7"/>
    <line x1="22" y1="5" x2="18" y2="5"/>
    <line x1="4" y1="17" x2="4" y2="19"/>
    <line x1="5" y1="18" x2="3" y2="18"/>
  </g>
</svg>
